# xmcd
#
# Track frame offsets:
#	150
#	22697
#	45610
#	66925
#	94460
#	115602
#	139267
#	171702
#	190940
#	209172
#	247227
#
# Disc length: 3788 seconds
#
# Revision: 3
# Processed by: cddbd v1.5.2PL0 Copyright (c) Steve Scherf et al.
# Submitted via: EasyCDDAExtractor 11.5.0.1
#
DISCID=aa0eca0b
DTITLE=Marvin Sease - Do You Need A Licker
DYEAR=1994
DGENRE=Blues
TTITLE0=Hittin' and Running
TTITLE1=You used me
TTITLE2=Don't go
TTITLE3=Rockin them bones
TTITLE4=Stop the rain
TTITLE5=That's the way love is
TTITLE6=I'm Mr. Jody
TTITLE7=You and me
TTITLE8=Tell me what to do
TTITLE9=Do you need a licker
TTITLE10=I'm sinkin' down
EXTD=ID3G:  17
EXTT0=
EXTT1=
EXTT2=
EXTT3=
EXTT4=
EXTT5=
EXTT6=
EXTT7=
EXTT8=
EXTT9=
EXTT10=
PLAYORDER=
